<svg xmlns="http://www.w3.org/2000/svg" xmlns:xlink="http://www.w3.org/1999/xlink" viewBox="0 0 117.7 101.29"><defs><style>.cls-1{fill:#6265ac;}.cls-2{fill:url(#Безымянный_градиент_13);}.cls-3{fill:url(#Безымянный_градиент_13-2);}.cls-4{fill:url(#Безымянный_градиент_13-3);}.cls-5{fill:url(#Безымянный_градиент_13-4);}</style><linearGradient id="Безымянный_градиент_13" x1="15.7" x2="15.7" y2="101.29" gradientTransform="translate(-5.19 1.87) rotate(-6.03)" gradientUnits="userSpaceOnUse"><stop offset="0" stop-color="#00b6e9"/><stop offset="1" stop-color="#ee5aa1"/></linearGradient><linearGradient id="Безымянный_градиент_13-2" x1="59.88" y1="28.56" x2="59.88" y2="101.11" gradientTransform="matrix(0.98, -0.11, 0.1, 1, -5.46, 6.06)" xlink:href="#Безымянный_градиент_13"/><linearGradient id="Безымянный_градиент_13-3" x1="59.43" y1="28.7" x2="59.43" y2="101.24" gradientTransform="matrix(0.98, -0.11, 0.1, 1, -5.48, 6.01)" xlink:href="#Безымянный_градиент_13"/><linearGradient id="Безымянный_градиент_13-4" x1="104.77" y1="101.24" x2="104.77" y2="52.37" gradientTransform="translate(-7.55 11.5) rotate(-6.03)" xlink:href="#Безымянный_градиент_13"/></defs><g id="Слой_2" data-name="Слой 2"><g id="Слой_1-2" data-name="Слой 1"><path class="cls-1" d="M29.36.75H48.12a0,0,0,0,1,0,0V98.64a2,2,0,0,1-2,2H28.36a0,0,0,0,1,0,0V1.76a1,1,0,0,1,1-1Z" transform="translate(-14.37 15.14) rotate(-18.92)"/><rect class="cls-1" x="74.26" y="28.37" width="18.24" height="72.59" transform="translate(-20.32 45.19) rotate(-27.16)"/><path class="cls-2" d="M24.81-1.18h1.25a0,0,0,0,1,0,0V90.61a10.9,10.9,0,0,1-10.9,10.9h0a10.9,10.9,0,0,1-10.9-10.9V19.37A20.55,20.55,0,0,1,24.81-1.18Z" transform="translate(5.36 -1.32) rotate(6.03)"/><path class="cls-3" d="M71,26.86h0a0,0,0,0,1,0,0V80.74a21.58,21.58,0,0,1-21.58,21.58h0a0,0,0,0,1,0,0V48.45A21.58,21.58,0,0,1,71,26.86Z" transform="translate(7.12 -5.97) rotate(6.03)"/><path class="cls-4" d="M70.58,27h0a0,0,0,0,1,0,0V80.88A21.58,21.58,0,0,1,49,102.46h0a0,0,0,0,1,0,0V48.59A21.58,21.58,0,0,1,70.58,27Z" transform="translate(7.14 -5.93) rotate(6.03)"/><path class="cls-5" d="M105.31,52.29h0a10.9,10.9,0,0,1,10.9,10.9V80.6A21.81,21.81,0,0,1,94.41,102.4h0a0,0,0,0,1,0,0V63.2A10.9,10.9,0,0,1,105.31,52.29Z" transform="translate(8.72 -10.64) rotate(6.03)"/></g></g></svg>