<svg width="38" height="40" viewBox="0 0 38 40" fill="none" xmlns="http://www.w3.org/2000/svg">
<g clip-path="url(#clip0_668_419)">
<path d="M9.38975 17.625C11.5761 17.625 13.3489 19.4568 13.3489 21.7614C13.3489 23.8295 11.7534 26.9614 9.38975 26.9614C5.19429 26.9614 3.2443 17.625 9.38975 17.625Z" fill="#24A1DF"/>
<path d="M17.3078 30.5664L17.8396 38.3664C17.8396 38.5437 17.7806 38.6619 17.6624 38.8391C17.5442 38.9573 17.3669 39.0164 17.2487 39.0164H1.53055C1.35327 39.0164 1.23509 38.9573 1.11691 38.8391C0.93964 38.721 0.880549 38.5437 0.93964 38.3664L1.47146 30.33C1.58964 29.5028 1.70782 28.4982 3.00782 28.0846C4.18964 27.73 5.25327 27.4937 6.73055 27.3164C6.90782 27.3164 7.14418 27.3755 7.26236 27.5528C7.38055 27.73 7.43964 27.9073 7.38055 28.0846C6.61236 30.6255 7.20327 32.871 9.38964 35.1164C11.576 32.93 12.1669 30.7437 11.3987 28.1437C11.3396 27.9664 11.3987 27.73 11.5169 27.6119C11.6351 27.4346 11.8124 27.3755 12.0487 27.3755C13.4669 27.5528 14.5306 27.7891 15.7715 28.1437C17.0715 28.4982 17.2487 29.5619 17.3669 30.4482L17.3078 30.5664Z" fill="#24A1DF"/>
<path d="M27.9442 17.625C30.1306 17.625 31.9033 19.4568 31.9033 21.7614C31.9033 23.8295 30.3078 26.9614 27.9442 26.9614C23.8078 26.9614 21.8578 17.625 27.9442 17.625Z" fill="#24A1DF"/>
<path d="M36.3941 38.3664C36.3941 38.5437 36.3351 38.6619 36.2169 38.8391C36.1578 38.9573 35.9805 39.0164 35.8032 39.0164H20.0851C19.9078 39.0164 19.7896 38.9573 19.6714 38.8391C19.5532 38.721 19.4941 38.5437 19.4941 38.3664L20.026 30.33C20.1441 29.5028 20.2623 28.4982 21.5623 28.0846C22.7441 27.73 23.8078 27.4937 25.2851 27.3164C25.4623 27.3164 25.6987 27.3755 25.8169 27.5528C25.9351 27.73 25.9941 27.9073 25.9351 28.0846C25.1078 30.6255 25.7578 32.871 27.9441 35.1164C30.1305 32.871 30.7805 30.6846 29.9532 28.0846C29.8941 27.9073 29.9532 27.671 30.0714 27.5528C30.1896 27.3755 30.426 27.3164 30.6032 27.3164C32.0214 27.4937 33.0851 27.73 34.326 28.0846C35.626 28.4391 35.8032 29.5028 35.9214 30.3891V30.5664L36.3941 38.3664Z" fill="#24A1DF"/>
<path d="M13.3488 2.32031C10.867 2.32031 8.62156 3.56122 7.26247 5.6294C5.96247 7.6385 5.66701 10.1203 6.55338 12.3067L5.43065 16.1476C5.37156 16.3249 5.43065 16.5612 5.54883 16.7385C5.66701 16.9158 5.90338 16.9749 6.08065 16.9158L9.86247 16.1476C10.9852 16.7385 12.167 17.034 13.3488 17.034C14.5898 17.034 15.8307 16.6794 17.0125 16.0294C19.317 14.7294 20.6761 12.3067 20.6761 9.70668C20.6761 5.57031 17.367 2.32031 13.3488 2.32031ZM16.6579 12.9567H10.3352C9.98065 12.9567 9.74429 12.6612 9.74429 12.3658C9.74429 12.0703 9.98065 11.7749 10.3352 11.7749H16.6579C17.0125 11.7749 17.2488 12.0703 17.2488 12.3658C17.2488 12.7203 16.9534 12.9567 16.6579 12.9567ZM16.6579 10.2385H10.3352C9.98065 10.2385 9.74429 10.0021 9.74429 9.64759C9.74429 9.29304 9.98065 9.05668 10.3352 9.05668H16.6579C17.0125 9.05668 17.2488 9.29304 17.2488 9.64759C17.2488 10.0021 16.9534 10.2385 16.6579 10.2385ZM16.6579 7.46122H10.3352C9.98065 7.46122 9.74429 7.16577 9.74429 6.87031C9.74429 6.51577 9.98065 6.2794 10.3352 6.2794H16.6579C17.0125 6.2794 17.2488 6.51577 17.2488 6.87031C17.2488 7.16577 16.9534 7.46122 16.6579 7.46122Z" fill="#24A1DF"/>
<path d="M32.7896 15.0265L31.6669 11.1856C32.5533 8.94013 32.2578 6.45831 30.9578 4.44922C29.5987 2.44013 27.2942 1.19922 24.8123 1.19922C22.6851 1.19922 20.7351 2.14468 19.376 3.62195C20.9123 5.15831 21.8578 7.28559 21.8578 9.59013C21.8578 11.3038 21.326 12.9583 20.4396 14.3174C22.6851 16.0311 25.8169 16.3265 28.3578 14.9083L32.1396 15.6765C32.3169 15.7356 32.5533 15.6765 32.6714 15.4992C32.7896 15.4402 32.8487 15.2038 32.7896 15.0265ZM25.7578 12.6629C25.7578 13.0174 25.5214 13.2538 25.1669 13.2538C24.8714 13.2538 24.576 13.0174 24.576 12.6629C24.576 12.3083 24.8714 12.072 25.1669 12.072C25.4623 12.072 25.7578 12.3083 25.7578 12.6629ZM25.9351 9.53104C25.8169 9.64922 25.7578 9.7674 25.7578 9.94468V10.6538C25.7578 10.9492 25.5214 11.2447 25.1669 11.2447C24.8714 11.2447 24.576 10.9492 24.576 10.6538V10.0038C24.576 9.35377 24.9305 8.82195 25.226 8.64468C25.4033 8.5265 26.4078 7.64013 26.4078 6.39922C26.4078 4.74468 23.926 4.74468 23.926 6.39922V6.93104C23.926 7.28559 23.6896 7.52195 23.3351 7.52195C22.9805 7.52195 22.7442 7.28559 22.7442 6.93104V6.34013C22.7442 5.39468 23.1578 4.86286 23.5123 4.50831C24.9305 3.2674 27.5896 3.9765 27.5896 6.34013C27.5896 7.93559 26.4669 9.1174 25.9351 9.53104Z" fill="#24A1DF"/>
</g>
<defs>
<clipPath id="clip0_668_419">
<rect width="37" height="39" fill="white" transform="translate(0.166992 0.607422)"/>
</clipPath>
</defs>
</svg>
