<svg width="38" height="38" viewBox="0 0 38 38" fill="none" xmlns="http://www.w3.org/2000/svg">
<g clip-path="url(#clip0_668_432)">
<mask id="mask0_668_432" style="mask-type:luminance" maskUnits="userSpaceOnUse" x="0" y="0" width="38" height="38">
<path d="M37.5 0.523438H0.5V37.5234H37.5V0.523438Z" fill="white"/>
</mask>
<g mask="url(#mask0_668_432)">
<path d="M0.5 20.1797H7.07617V37.5235H0.5V20.1797Z" fill="#24A1DF"/>
<path d="M29.8398 0.523438C25.6563 0.523438 22.252 4.00007 22.252 8.1836C22.252 12.3671 25.6563 15.8437 29.8398 15.8437C34.0234 15.8437 37.5 12.3671 37.5 8.1836C37.5 4.00007 34.0234 0.523438 29.8398 0.523438ZM28.7559 11.8844L25.8215 8.95005L27.3543 7.41722L28.7559 8.81874L32.3254 5.24918L33.8582 6.782L28.7559 11.8844Z" fill="#24A1DF"/>
<path d="M16.832 4.93164H15.748V11.083C15.748 15.2188 13.0661 18.802 9.24414 20.1126V35.3554H11.4121C13.1397 36.7538 15.3161 37.5234 17.5392 37.5234H28.7707L29.1264 34.2714H22.252V32.1035H29.3635L29.7192 28.8515H22.252V26.6836H29.9563L30.312 23.4316H22.252V21.2636H30.5491L30.9047 18.0117H20.084V8.1836C20.084 6.38758 18.628 4.93164 16.832 4.93164Z" fill="#24A1DF"/>
</g>
</g>
<defs>
<clipPath id="clip0_668_432">
<rect width="37" height="37" fill="white" transform="translate(0.5 0.523438)"/>
</clipPath>
</defs>
</svg>
