<svg width="38" height="40" viewBox="0 0 38 40" fill="none" xmlns="http://www.w3.org/2000/svg">
<g clip-path="url(#clip0_106_385)">
<path d="M9.38975 17.6021C11.5761 17.6021 13.3489 19.4339 13.3489 21.7385C13.3489 23.8066 11.7534 26.9385 9.38975 26.9385C5.19429 26.9385 3.2443 17.6021 9.38975 17.6021Z" fill="#24A1DF"/>
<path d="M17.3078 30.543L17.8396 38.343C17.8396 38.5203 17.7806 38.6385 17.6624 38.8157C17.5442 38.9339 17.3669 38.993 17.2487 38.993H1.53055C1.35327 38.993 1.23509 38.9339 1.11691 38.8157C0.93964 38.6976 0.880549 38.5203 0.93964 38.343L1.47146 30.3066C1.58964 29.4794 1.70782 28.4748 3.00782 28.0612C4.18964 27.7066 5.25327 27.4703 6.73055 27.293C6.90782 27.293 7.14418 27.3521 7.26236 27.5294C7.38055 27.7066 7.43964 27.8839 7.38055 28.0612C6.61236 30.6021 7.20327 32.8476 9.38964 35.093C11.576 32.9066 12.1669 30.7203 11.3987 28.1203C11.3396 27.943 11.3987 27.7066 11.5169 27.5885C11.6351 27.4112 11.8124 27.3521 12.0487 27.3521C13.4669 27.5294 14.5306 27.7657 15.7715 28.1203C17.0715 28.4748 17.2487 29.5385 17.3669 30.4248L17.3078 30.543Z" fill="#24A1DF"/>
<path d="M27.944 17.6021C30.1304 17.6021 31.9031 19.4339 31.9031 21.7385C31.9031 23.8066 30.3076 26.9385 27.944 26.9385C23.8076 26.9385 21.8576 17.6021 27.944 17.6021Z" fill="#24A1DF"/>
<path d="M36.3941 38.343C36.3941 38.5203 36.3351 38.6385 36.2169 38.8157C36.1578 38.9339 35.9805 38.993 35.8032 38.993H20.0851C19.9078 38.993 19.7896 38.9339 19.6714 38.8157C19.5532 38.6976 19.4941 38.5203 19.4941 38.343L20.026 30.3066C20.1441 29.4794 20.2623 28.4748 21.5623 28.0612C22.7441 27.7066 23.8078 27.4703 25.2851 27.293C25.4623 27.293 25.6987 27.3521 25.8169 27.5294C25.9351 27.7066 25.9941 27.8839 25.9351 28.0612C25.1078 30.6021 25.7578 32.8476 27.9441 35.093C30.1305 32.8476 30.7805 30.6612 29.9532 28.0612C29.8941 27.8839 29.9532 27.6476 30.0714 27.5294C30.1896 27.3521 30.426 27.293 30.6032 27.293C32.0214 27.4703 33.0851 27.7066 34.326 28.0612C35.626 28.4157 35.8032 29.4794 35.9214 30.3657V30.543L36.3941 38.343Z" fill="#24A1DF"/>
<path d="M13.3485 2.29736C10.8667 2.29736 8.62132 3.53827 7.26223 5.60645C5.96223 7.61555 5.66677 10.0974 6.55314 12.2837L5.43041 16.1246C5.37132 16.3019 5.43041 16.5382 5.54859 16.7155C5.66677 16.8928 5.90314 16.9519 6.08041 16.8928L9.86223 16.1246C10.9849 16.7155 12.1667 17.011 13.3485 17.011C14.5895 17.011 15.8304 16.6564 17.0122 16.0064C19.3167 14.7064 20.6758 12.2837 20.6758 9.68373C20.6758 5.54736 17.3667 2.29736 13.3485 2.29736ZM16.6576 12.9337H10.3349C9.98041 12.9337 9.74405 12.6382 9.74405 12.3428C9.74405 12.0473 9.98041 11.7519 10.3349 11.7519H16.6576C17.0122 11.7519 17.2485 12.0473 17.2485 12.3428C17.2485 12.6973 16.9531 12.9337 16.6576 12.9337ZM16.6576 10.2155H10.3349C9.98041 10.2155 9.74405 9.97918 9.74405 9.62464C9.74405 9.27009 9.98041 9.03373 10.3349 9.03373H16.6576C17.0122 9.03373 17.2485 9.27009 17.2485 9.62464C17.2485 9.97918 16.9531 10.2155 16.6576 10.2155ZM16.6576 7.43827H10.3349C9.98041 7.43827 9.74405 7.14282 9.74405 6.84736C9.74405 6.49282 9.98041 6.25645 10.3349 6.25645H16.6576C17.0122 6.25645 17.2485 6.49282 17.2485 6.84736C17.2485 7.14282 16.9531 7.43827 16.6576 7.43827Z" fill="#24A1DF"/>
<path d="M32.7896 15.0021L31.6669 11.1612C32.5533 8.91571 32.2578 6.43389 30.9578 4.4248C29.5987 2.41571 27.2942 1.1748 24.8123 1.1748C22.6851 1.1748 20.7351 2.12026 19.376 3.59753C20.9123 5.13389 21.8578 7.26117 21.8578 9.56571C21.8578 11.2794 21.326 12.9339 20.4396 14.293C22.6851 16.0067 25.8169 16.3021 28.3578 14.8839L32.1396 15.6521C32.3169 15.7112 32.5533 15.6521 32.6714 15.4748C32.7896 15.4158 32.8487 15.1794 32.7896 15.0021ZM25.7578 12.6385C25.7578 12.993 25.5214 13.2294 25.1669 13.2294C24.8714 13.2294 24.576 12.993 24.576 12.6385C24.576 12.2839 24.8714 12.0476 25.1669 12.0476C25.4623 12.0476 25.7578 12.2839 25.7578 12.6385ZM25.9351 9.50662C25.8169 9.6248 25.7578 9.74298 25.7578 9.92026V10.6294C25.7578 10.9248 25.5214 11.2203 25.1669 11.2203C24.8714 11.2203 24.576 10.9248 24.576 10.6294V9.97935C24.576 9.32935 24.9305 8.79753 25.226 8.62026C25.4033 8.50208 26.4078 7.61571 26.4078 6.3748C26.4078 4.72026 23.926 4.72026 23.926 6.3748V6.90662C23.926 7.26117 23.6896 7.49753 23.3351 7.49753C22.9805 7.49753 22.7442 7.26117 22.7442 6.90662V6.31571C22.7442 5.37026 23.1578 4.83844 23.5123 4.48389C24.9305 3.24298 27.5896 3.95208 27.5896 6.31571C27.5896 7.91117 26.4669 9.09298 25.9351 9.50662Z" fill="#24A1DF"/>
</g>
<defs>
<clipPath id="clip0_106_385">
<rect width="37" height="39" fill="white" transform="translate(0.166992 0.583984)"/>
</clipPath>
</defs>
</svg>
